OpenSim_Sub03_EMGStiffKnee_GRF.mot
version=1
nRows=64
nColumns=19
inDegrees=no
endheader
time	lFx	lFy	lFz	lCOPx	lCOPy	lCOPz	rFx	rFy	rFz	rCOPx	rCOPy	rCOPz	lMx	lMy	lMz	rMx	rMy	rMz
18.99000000	9.63564899	723.78160435	52.44829346	0.70329293	0	-0.69242001	-0.15316410	0.36955246	0.20876544	0.00000109	0	-0.00000046	0	-10.18211723	0	0	-0.00000010	0.00000000
19	12.88405428	723.60861176	53.17379868	0.69599929	0	-0.69257906	-0.08105473	0.30296386	0.18046881	0.00000221	0	-0.00000096	0	-10.21762746	0	0	-0.00000056	-0.00000000
19.01000000	16.02458998	725.81487737	53.82196815	0.68895342	0	-0.69278730	-0.03816315	0.20599778	0.14728330	0.00000263	0	-0.00000117	0	-10.24454885	0	0	-0.00000133	0.00000000
19.02000000	18.96784292	730.47205234	54.36538914	0.68223553	0	-0.69302242	-0.04137375	0.14481414	0.15570787	-0.00000036	0	0.00000005	0	-10.26800494	0	0	-0.00000196	-0.00000000
19.03000000	21.76954957	737.58959654	54.72362534	0.67574339	0	-0.69325475	-0.03442548	0.10469461	0.13915099	-0.00001106	0	0.00000459	0	-10.20685757	0	0	-0.00000095	-0.00000000
19.04000000	24.54485076	746.75406770	54.98308875	0.66927525	0	-0.69344029	-0.02663259	0.04825202	0.12418010	-0.00003246	0	0.00001385	0	-10.03689566	0	0	0.00000452	0.00000000
19.05000000	27.37165974	756.99871889	55.30795783	0.66301687	0	-0.69361471	-0.02556964	0.02739508	0.12895732	-0.00005736	0	0.00002496	0	-9.81398824	0	0	0.00001744	0.00000000
19.06000000	30.47683015	767.11067080	55.80682205	0.65699183	0	-0.69384649	-0.01377081	0.11440173	0.08764978	-0.00005236	0	0.00002386	0	-9.57271889	0	0	0.00003618	0.00000000
19.07000000	34.15135246	776.03787649	56.51486779	0.65091761	0	-0.69413835	0.00773807	0.27818891	0.07044825	0.00005732	0	-0.00002167	0	-9.33205842	0	0	0.00004455	-0.00000000
19.08000000	38.42804132	783.23696820	57.40359701	0.64449575	0	-0.69446913	0.02346638	0.45931746	0.09464092	0.00037389	0	-0.00015678	0	-9.15182332	0	0	-0.00000092	-0.00000000
19.09000000	42.93203828	788.68734811	58.39293745	0.63787362	0	-0.69482641	0.06636479	0.61162584	0.13908132	0.00092634	0	-0.00039738	0	-9.08495754	0	0	-0.00017173	-0.00000000
19.10000000	47.27364413	792.58394597	59.30765892	0.63125947	0	-0.69519152	0.14339687	0.66805276	0.15643031	0.00141578	0	-0.00062104	0	-9.03738278	0	0	-0.00052183	-0.00000000
19.11000000	51.45687771	795.11462847	59.98842405	0.62465648	0	-0.69554878	0.18361848	0.56151675	0.14188885	0.00081813	0	-0.00039286	0	-8.90074047	0	0	-0.00094502	0.00000000
19.12000000	55.58637363	796.32496320	60.44227004	0.61800343	0	-0.69590604	-0.01413236	0.33406699	0.13163028	-0.00286594	0	0.00115320	0	-8.68715627	0	0	-0.00091196	-0.00000000
19.13000000	59.53126500	796.20536995	60.71416637	0.61142023	0	-0.69627637	-0.77422090	0.02958174	0.05633054	-0.01186877	0	0.00501716	0	-8.43544558	0	0	0.00079384	-0.00000000
19.14000000	63.07871694	794.67297920	60.97469012	0.60506603	0	-0.69665542	-2.41721334	-0.18582519	-0.09814062	-0.02543762	0	0.01097398	0	-8.22774498	0	0	0.00588628	0.00000000
19.15000000	66.26569078	791.23015462	61.25618599	0.59885868	0	-0.69705466	-4.69200271	0.31180315	-0.13783251	-0.03280524	0	0.01454344	0	-8.08641146	0	0	0.01499518	0.00000000
19.16000000	69.16329353	784.92686254	61.42823437	0.59266014	0	-0.69749025	-6.18956338	3.43049048	0.28260939	-0.00389030	0	0.00287435	0	-7.97656163	0	0	0.02354811	-0.00000000
19.17000000	71.64972775	774.89930065	61.25864678	0.58649832	0	-0.69794261	-4.11537478	13.63569092	1.68608071	0.11249369	0	-0.04635476	0	-7.83891517	0	0	0.01517053	-0.00000000
19.18000000	73.41653259	760.70585086	60.53855897	0.58042177	0	-0.69833250	4.33725841	37.99496686	4.53525527	0.35885432	0	-0.15269204	0	-7.62114983	0	0	-0.04288710	0.00000000
19.19000000	74.43509047	742.23547936	59.19920490	0.57422123	0	-0.69858609	17.13256999	81.43727091	8.42251477	0.67470888	0	-0.29259710	0	-7.28988451	0	0	-0.17988555	0
19.20000000	74.91991536	719.10284832	57.18248085	0.56788250	0	-0.69872860	24.20989080	139.28578946	11.03704279	0.89227093	0	-0.39305970	0	-6.84724704	0	0	-0.29666646	0
19.21000000	75.00838403	690.45609806	54.32802341	0.56162764	0	-0.69887506	18.71906778	199.79780770	8.79840314	0.98198820	0	-0.43647573	0	-6.33097115	0	0	-0.34133891	0
19.22000000	74.47982565	655.32608886	50.47634350	0.55572061	0	-0.69907399	4.73058491	253.97642754	1.78750433	0.99935827	0	-0.44419687	0	-5.77340700	0	0	-0.33651838	0
19.23000000	72.94297095	613.02434790	45.65149488	0.55006464	0	-0.69919295	-11.40517694	298.82685128	-7.46369805	0.99221351	0	-0.43804438	0	-5.21632318	0	0	-0.39829328	0
19.24000000	70.02757610	563.56700460	40.01891949	0.54423474	0	-0.69899784	-26.97015142	335.87749408	-17.45287530	0.98236759	0	-0.43024860	0	-4.65655592	0	0	-0.68179384	0
19.25000000	65.44170966	507.95799540	33.82546544	0.53807746	0	-0.69840601	-40.94975806	370.09133324	-27.59611573	0.97583995	0	-0.42496633	0	-4.09012099	0	0	-1.19118781	0
19.26000000	58.94925440	447.94366094	27.37447918	0.53202633	0	-0.69764149	-53.38136375	408.12544142	-38.11986784	0.97217627	0	-0.42231297	0	-3.54911755	0	0	-1.81188753	0
19.27000000	50.48875944	385.56610112	21.03101721	0.52692033	0	-0.69738635	-65.07620519	455.40417684	-48.97537792	0.96942487	0	-0.42132039	0	-3.16759507	0	0	-2.47343556	0
19.28000000	40.28569591	322.98051726	15.04295383	0.52351156	0	-0.69885666	-75.81073035	513.33848549	-58.54865596	0.96646601	0	-0.42116512	0	-3.00546790	0	0	-3.17982110	0
19.29000000	28.84876470	262.60579635	9.70110129	0.52214428	0	-0.70319931	-84.06008134	578.75295792	-65.32978266	0.96277456	0	-0.42145647	0	-3.00780932	0	0	-3.88300032	-0.00000000
19.30000000	16.91039760	206.69336341	5.45415620	0.52265434	0	-0.70963884	-88.81348808	645.60667210	-68.92883992	0.95804807	0	-0.42203018	0	-3.16772701	0	0	-4.50057087	0
19.31000000	5.40170881	156.53537499	2.56753430	0.52119137	0	-0.71129487	-90.03068706	706.46994891	-69.37450184	0.95233735	0	-0.42270543	0	-3.44100534	0	0	-4.95876179	0
19.32000000	-4.39181973	112.67794648	0.92707196	0.50674427	0	-0.68968946	-87.62487437	754.29415158	-67.34607103	0.94611803	0	-0.42331504	0	-3.66431451	0	0	-5.35371372	0
19.33000000	-11.24942307	75.87568404	0.09981251	0.46056222	0	-0.61431971	-82.11415893	785.11400717	-64.65042545	0.93965686	0	-0.42373007	0	-3.59349494	0	0	-5.78594018	-0.00000000
19.34000000	-14.20583853	46.78377108	-0.65827315	0.36700371	0	-0.46271153	-74.73724070	798.96937778	-63.29823126	0.93319768	0	-0.42383494	0	-2.99773433	0	0	-6.21306995	0
19.35000000	-12.77157630	25.20688679	-2.02870266	0.23484600	0	-0.26768083	-66.53767823	798.89716911	-63.86600731	0.92695440	0	-0.42357506	0	-1.93437777	0	0	-6.67500096	0
19.36000000	-8.39214442	10.68346211	-3.95601538	0.10341280	0	-0.10267646	-58.12694238	789.26947942	-65.57062052	0.92099750	0	-0.42302366	0	-0.86051286	0	0	-7.15430369	-0.00000000
19.37000000	-4.16736494	2.76202910	-5.38115592	0.02153862	0	-0.01227471	-49.71730963	773.91227153	-67.46703014	0.91523112	0	-0.42235796	0	-0.18444981	0	0	-7.48723175	-0.00000000
19.38000000	-1.76696427	0.07553067	-5.85451919	-0.00989723	0	0.01717612	-41.40454083	755.51844895	-68.86912000	0.90976222	0	-0.42168452	0	0.07814226	0	0	-7.67848883	0
19.39000000	-0.95235784	0.13526051	-6.01099712	-0.01366417	0	0.01709286	-33.39456843	735.75695726	-69.31359402	0.90460770	0	-0.42106131	0	0.11167973	0	0	-7.83608774	0
19.40000000	-0.94943095	0.91760069	-5.88750011	-0.00841260	0	0.00925889	-26.02030500	715.91524335	-68.76146079	0.89960490	0	-0.42054908	0	0.06948285	0	0	-7.88495342	-0.00000000
19.41000000	-1.20314511	1.54066839	-5.76958153	-0.00318281	0	0.00296128	-19.50643705	697.26557296	-67.38501187	0.89462563	0	-0.42016060	0	0.02659861	0	0	-7.80707862	0
19.42000000	-1.44502344	1.85495788	-5.63700784	-0.00034895	0	-0.00005294	-13.94297252	681.04606567	-65.44189232	0.88967071	0	-0.41984867	0	0.00313265	0	0	-7.74154887	0
19.43000000	-1.59809242	1.97169761	-5.52994438	0.00055788	0	-0.00082366	-9.53874531	667.95733029	-63.46026411	0.88473654	0	-0.41959875	0	-0.00448755	0	0	-7.67878164	0
19.44000000	-1.67594943	1.97152043	-5.58595906	0.00054206	0	-0.00065047	-6.55847452	658.20330066	-61.77435105	0.87996200	0	-0.41941078	0	-0.00444620	0	0	-7.54658729	0
19.45000000	-1.72204619	1.90335721	-5.62789479	0.00029015	0	-0.00030751	-5.08763647	651.72668104	-60.32829170	0.87528692	0	-0.41926742	0	-0.00240323	0	0	-7.39078532	0
19.46000000	-1.74633665	1.80308786	-5.67677668	0.00009111	0	-0.00007652	-4.78107627	648.47969891	-59.24286669	0.87058295	0	-0.41914522	0	-0.00076610	0	0	-7.22649793	0.00000000
19.47000000	-1.75093791	1.72601173	-5.70571015	-0.00000302	0	0.00001937	-5.08592987	648.66872894	-58.83700298	0.86582429	0	-0.41903462	0	0.00001578	0	0	-7.02988761	-0.00000000
19.48000000	-1.73794109	1.66398479	-5.72628450	-0.00002647	0	0.00003580	-5.37774968	652.51642431	-59.19037441	0.86100367	0	-0.41889608	0	0.00021477	0	0	-6.85853677	0.00000000
19.49000000	-1.72416608	1.65766882	-5.74347828	-0.00002055	0	0.00002378	-5.34730231	659.71886075	-60.22077692	0.85600081	0	-0.41872602	0	0.00016909	0	0	-6.76657365	0
19.50000000	-1.73837694	1.59889937	-5.74833590	-0.00000960	0	0.00000974	-4.86158323	669.64103818	-61.94373569	0.85045126	0	-0.41855056	0	0.00007976	0	0	-6.66389642	0.00000000
19.51000000	-1.76279622	1.46339480	-5.79790261	-0.00000232	0	0.00000158	-3.95857465	681.70271145	-64.30728543	0.84438375	0	-0.41830620	0	0.00001975	0	0	-6.45121342	0
19.52000000	-1.75932782	1.34563128	-5.88619973	0.00000066	0	-0.00000129	-2.79051268	695.11581227	-67.06006597	0.83819287	0	-0.41797235	0	-0.00000510	0	0	-6.14550803	0
19.53000000	-1.75929032	1.26626003	-5.94553238	0.00000114	0	-0.00000146	-1.47205513	708.94810424	-69.77288023	0.83233092	0	-0.41760303	0	-0.00000932	0	0	-5.80623288	0
19.54000000	-1.78110349	1.29273269	-5.92926630	0.00000075	0	-0.00000084	0.01748840	722.61832455	-72.09085926	0.82685585	0	-0.41725806	0	-0.00000618	0	0	-5.44905210	0
19.55000000	-1.80764964	1.47295304	-5.86206863	0.00000030	0	-0.00000029	1.74844064	735.96402312	-73.82536572	0.82166181	0	-0.41695306	0	-0.00000252	0	0	-5.07321435	0
19.56000000	-1.84691926	1.60617978	-5.84409911	0.00000005	0	-0.00000001	3.48268237	748.62222939	-75.08389916	0.81665639	0	-0.41667909	0	-0.00000041	0	0	-4.69277119	0
19.57000000	-1.88503057	1.60715328	-5.86752852	-0.00000004	0	0.00000006	4.92365962	759.80669845	-76.01388324	0.81183146	0	-0.41643225	0	0.00000032	0	0	-4.29909376	0
19.58000000	-1.91931305	1.61594787	-5.88819233	-0.00000004	0	0.00000005	5.83514891	768.57323240	-76.75211873	0.80713821	0	-0.41620071	0	0.00000035	0	0	-3.86733061	0
19.59000000	-1.95438481	1.67827847	-5.87761074	-0.00000002	0	0.00000003	6.34391852	774.14692203	-77.25771976	0.80249196	0	-0.41595098	0	0.00000020	0	0	-3.42703414	0.00000000
19.60000000	-1.99466432	1.82331156	-5.81831468	-0.00000001	0	0.00000001	6.69831633	776.48174040	-77.41419951	0.79789223	0	-0.41568723	0	0.00000012	0	0	-2.98336112	-0.00000000
19.61000000	-2.02578887	1.94114822	-5.78060093	-0.00000003	0	0.00000002	7.10994822	776.25979288	-77.23957195	0.79337475	0	-0.41548694	0	0.00000021	0	0	-2.46668237	0
19.62000000	-2.04438349	1.95442178	-5.71789950	-0.00000008	0	0.00000005	7.72242032	774.66005681	-76.88460056	0.78897608	0	-0.41543487	0	0.00000043	0	0	-1.92057824	0.00000000
